# xmcd
#
# Track frame offsets: 
#        150
#        15460
#        25859
#        48070
#        67949
#        85509
#        107657
#        122994
#        136715
#        157764
#        167083
#
# Disc length: 2440 seconds
#
# Revision: 0
# Processed by: cddbd v1.5.2PL0 Copyright (c) Steve Scherf et al.
# Submitted via: ExactAudioCopy v0.99pb4
#
DISCID=7309860b
DTITLE=Steve Thorpe Blues Orchestra - Trouble
DYEAR=2004
DGENRE=Blues
TTITLE0=Don't Love You Baby
TTITLE1=Lonely In the Middle of Love
TTITLE2=Stay Away From the Jim
TTITLE3=19 Years Old
TTITLE4=Stormy Monday
TTITLE5=Walkin' in the Rain
TTITLE6=Flower Girl
TTITLE7=Shoe
TTITLE8=Sweet Little Angel
TTITLE9=Drivin' With My Baby
TTITLE10=Trouble
EXTD=
EXTT0=
EXTT1=
EXTT2=
EXTT3=
EXTT4=
EXTT5=
EXTT6=
EXTT7=
EXTT8=
EXTT9=
EXTT10=
PLAYORDER=
